# xmcd
#
# Track frame offsets: 
#        150
#        21560
#        44035
#        64079
#        78706
#        97587
#        118782
#        137011
#        153260
#        174952
#        192536
#        209679
#        225277
#
# Disc length: 3259 seconds
#
# Revision: 0
# Processed by: cddbd v1.5.2PL0 Copyright (c) Steve Scherf et al.
# Submitted via: ExactAudioCopy v1.0b3
#
DISCID=b10cb90d
DTITLE=Diverse - Rockin The Blues
DYEAR=2019
DGENRE=Blues
TTITLE0=Joe Bonamassa - Deep In The Blues Again
TTITLE1=Reese Wynans - Crossfire
TTITLE2=Walter Trout - Red Sun
TTITLE3=Beth Hart - Love Is A Lie
TTITLE4=Kenny Wayne Shepherd - Long Time Running
TTITLE5=Gary Hoey feat. Lance Lopez - Damned If I Do
TTITLE6=Kris Barras Band - Lovers Or Losers
TTITLE7=Jonny Lang - Stronger Together
TTITLE8=Robert Randolph and The Family Band - Cry Over Me
TTITLE9=George Benson - Nadine (It's You)
TTITLE10=Robin Trower - Tide Of Confusion
TTITLE11=Eric Gales - Watcha Gon' Do
TTITLE12=Lance Lopez - Never Came Easy To Me
EXTD=
EXTT0=
EXTT1=
EXTT2=
EXTT3=
EXTT4=
EXTT5=
EXTT6=
EXTT7=
EXTT8=
EXTT9=
EXTT10=
EXTT11=
EXTT12=
PLAYORDER=
